<svg width="20" height="20" viewBox="0 0 20 20" fill="none" xmlns="http://www.w3.org/2000/svg">
<path fill-rule="evenodd" clip-rule="evenodd" d="M4 0C1.79086 0 0 1.79086 0 4V16C0 18.2091 1.79086 20 4 20H16C18.2091 20 20 18.2091 20 16V4C20 1.79086 18.2091 0 16 0H4ZM15 9H11V5C11 4.44772 10.5523 4 10 4C9.44771 4 9 4.44772 9 5V9H5C4.44772 9 4 9.44771 4 10C4 10.5523 4.44772 11 5 11H9V15C9 15.5523 9.44771 16 10 16C10.5523 16 11 15.5523 11 15V11H15C15.5523 11 16 10.5523 16 10C16 9.44771 15.5523 9 15 9Z" fill="#19204E"/>
</svg>
