<svg width="27" height="27" viewBox="0 0 27 27" fill="none" xmlns="http://www.w3.org/2000/svg">
<circle cx="13.5" cy="13.5" r="13.5" fill="black" fill-opacity="0.4"/>
<path d="M6.28866 14.2915C6.23327 14.1605 6.20264 14.0165 6.20264 13.8654C6.20264 13.5631 6.32515 13.2895 6.52324 13.0914L11.6832 7.93144C12.1107 7.50397 12.8037 7.50397 13.2312 7.93144C13.6587 8.35891 13.6587 9.05196 13.2312 9.47943L9.93982 12.7708H20.4324C21.0369 12.7708 21.527 13.2609 21.527 13.8654C21.527 14.4699 21.0369 14.96 20.4324 14.96H9.93982L13.2312 18.2514C13.6587 18.6788 13.6587 19.3719 13.2312 19.7994C12.8037 20.2268 12.1107 20.2268 11.6832 19.7994L6.52324 14.6394C6.41637 14.5325 6.33622 14.4091 6.28279 14.2773L6.28866 14.2915Z" fill="#FCFCFC"/>
</svg>
