<svg width="26" height="26" viewBox="0 0 26 26" fill="none" xmlns="http://www.w3.org/2000/svg">
<path d="M20.1117 5.91514L16.4229 2.22637C16.3022 2.10463 16.1585 2.008 16.0003 1.94206C15.842 1.87612 15.6722 1.84217 15.5008 1.84217C15.3293 1.84217 15.1595 1.87612 15.0012 1.94206C14.843 2.008 14.6993 2.10463 14.5786 2.22637C14.3366 2.46973 14.2009 2.79893 14.2009 3.14207C14.2009 3.48521 14.3366 3.81441 14.5786 4.05777L17.3322 6.81136L6.81136 17.3322L4.05777 14.5786C3.81441 14.3366 3.48521 14.2009 3.14207 14.2009C2.79893 14.2009 2.46973 14.3366 2.22637 14.5786C2.10463 14.6993 2.008 14.843 1.94206 15.0012C1.87612 15.1595 1.84217 15.3293 1.84217 15.5008C1.84217 15.6722 1.87612 15.842 1.94206 16.0003C2.008 16.1585 2.10463 16.3022 2.22637 16.4229L5.87618 20.0728L9.52598 23.7226C9.64628 23.8453 9.78973 23.9429 9.94803 24.0098C10.1063 24.0767 10.2763 24.1115 10.4482 24.1122C10.7062 24.1137 10.9588 24.0384 11.1737 23.8957C11.3887 23.7531 11.5564 23.5497 11.6553 23.3114C11.7542 23.0732 11.78 22.8108 11.7292 22.5579C11.6785 22.3049 11.5535 22.0728 11.3704 21.8912L8.65574 19.1765L19.1765 8.65574L21.9301 11.4093C22.0512 11.5296 22.1948 11.6248 22.3527 11.6896C22.5106 11.7543 22.6798 11.7873 22.8504 11.7867C23.0211 11.7861 23.19 11.7519 23.3474 11.686C23.5048 11.6202 23.6478 11.5239 23.768 11.4028C23.8883 11.2817 23.9835 11.1381 24.0482 10.9802C24.113 10.8223 24.146 10.6532 24.1454 10.4825C24.1448 10.3119 24.1106 10.143 24.0447 9.98557C23.9789 9.82813 23.8826 9.6852 23.7615 9.56495L20.1117 5.91514ZM2.22637 20.0857C1.98179 19.8412 1.65007 19.7038 1.30418 19.7038C0.958288 19.7038 0.626566 19.8412 0.381985 20.0857C0.137404 20.3303 2.57708e-09 20.662 0 21.0079C-2.57708e-09 21.3538 0.137404 21.6855 0.381985 21.9301L4.05777 25.6059C4.17913 25.7263 4.32307 25.8215 4.48132 25.8862C4.63957 25.9508 4.80902 25.9836 4.97996 25.9826C5.1509 25.9836 5.32035 25.9508 5.4786 25.8862C5.63685 25.8215 5.78079 25.7263 5.90215 25.6059C6.02389 25.4852 6.12052 25.3415 6.18646 25.1832C6.25241 25.025 6.28636 24.8552 6.28636 24.6837C6.28636 24.5123 6.25241 24.3425 6.18646 24.1842C6.12052 24.0259 6.02389 23.8823 5.90215 23.7615L2.22637 20.0857ZM25.6059 4.05777L21.9301 0.381985C21.809 0.260881 21.6653 0.164816 21.507 0.0992746C21.3488 0.0337335 21.1792 0 21.0079 0C20.8367 0 20.6671 0.0337335 20.5088 0.0992746C20.3506 0.164816 20.2068 0.260881 20.0857 0.381985C19.9646 0.503089 19.8686 0.64686 19.803 0.805091C19.7375 0.963321 19.7038 1.13291 19.7038 1.30418C19.7038 1.47544 19.7375 1.64503 19.803 1.80327C19.8686 1.9615 19.9646 2.10527 20.0857 2.22637L23.7615 5.90215C23.8823 6.02389 24.0259 6.12052 24.1842 6.18646C24.3425 6.25241 24.5123 6.28636 24.6837 6.28636C24.8552 6.28636 25.025 6.25241 25.1832 6.18646C25.3415 6.12052 25.4852 6.02389 25.6059 5.90215C25.7277 5.78141 25.8243 5.63775 25.8902 5.47947C25.9562 5.3212 25.9901 5.15143 25.9901 4.97996C25.9901 4.8085 25.9562 4.63873 25.8902 4.48045C25.8243 4.32217 25.7277 4.17851 25.6059 4.05777Z" fill="#19204E"/>
</svg>
