<svg width="40" height="40" viewBox="0 0 40 40" fill="none" xmlns="http://www.w3.org/2000/svg">
<path d="M0 8C0 3.58172 3.58172 0 8 0H32C36.4183 0 40 3.58172 40 8V32C40 36.4183 36.4183 40 32 40H8C3.58172 40 0 36.4183 0 32V8Z" fill="#E73725"/>
<path d="M25.4841 14.5541L22.6441 11.7141C22.5511 11.6204 22.4405 11.546 22.3187 11.4952C22.1968 11.4444 22.0661 11.4183 21.9341 11.4183C21.8021 11.4183 21.6714 11.4444 21.5495 11.4952C21.4277 11.546 21.3171 11.6204 21.2241 11.7141C21.0378 11.9015 20.9333 12.1549 20.9333 12.4191C20.9333 12.6833 21.0378 12.9367 21.2241 13.1241L23.3441 15.2441L15.2441 23.3441L13.1241 21.2241C12.9367 21.0378 12.6833 20.9333 12.4191 20.9333C12.1549 20.9333 11.9015 21.0378 11.7141 21.2241C11.6204 21.3171 11.546 21.4277 11.4952 21.5495C11.4444 21.6714 11.4183 21.8021 11.4183 21.9341C11.4183 22.0661 11.4444 22.1968 11.4952 22.3187C11.546 22.4405 11.6204 22.5511 11.7141 22.6441L14.5241 25.4541L17.3341 28.2641C17.4267 28.3586 17.5372 28.4338 17.659 28.4852C17.7809 28.5367 17.9118 28.5635 18.0441 28.5641C18.2427 28.5652 18.4372 28.5072 18.6027 28.3974C18.7682 28.2876 18.8973 28.131 18.9735 27.9476C19.0496 27.7641 19.0694 27.5622 19.0304 27.3674C18.9913 27.1727 18.8951 26.994 18.7541 26.8541L16.6641 24.7641L24.7641 16.6641L26.8841 18.7841C26.9773 18.8767 27.0879 18.95 27.2095 18.9998C27.331 19.0497 27.4612 19.0751 27.5926 19.0746C27.724 19.0742 27.854 19.0478 27.9753 18.9971C28.0965 18.9464 28.2065 18.8723 28.2991 18.7791C28.3917 18.6859 28.465 18.5753 28.5148 18.4537C28.5647 18.3322 28.5901 18.202 28.5896 18.0706C28.5892 17.9392 28.5628 17.8091 28.5121 17.6879C28.4614 17.5667 28.3873 17.4567 28.2941 17.3641L25.4841 14.5541ZM11.7141 25.4641C11.5258 25.2758 11.2704 25.17 11.0041 25.17C10.7378 25.17 10.4824 25.2758 10.2941 25.4641C10.1058 25.6524 10 25.9078 10 26.1741C10 26.4404 10.1058 26.6958 10.2941 26.8841L13.1241 29.7141C13.2175 29.8068 13.3283 29.8801 13.4502 29.9299C13.572 29.9796 13.7025 30.0049 13.8341 30.0041C13.9657 30.0049 14.0962 29.9796 14.218 29.9299C14.3398 29.8801 14.4507 29.8068 14.5441 29.7141C14.6378 29.6211 14.7122 29.5105 14.763 29.3887C14.8138 29.2668 14.8399 29.1361 14.8399 29.0041C14.8399 28.8721 14.8138 28.7414 14.763 28.6195C14.7122 28.4977 14.6378 28.3871 14.5441 28.2941L11.7141 25.4641ZM29.7141 13.1241L26.8841 10.2941C26.7909 10.2009 26.6802 10.1269 26.5583 10.0764C26.4365 10.026 26.306 10 26.1741 10C26.0422 10 25.9117 10.026 25.7898 10.0764C25.668 10.1269 25.5573 10.2009 25.4641 10.2941C25.3709 10.3873 25.2969 10.498 25.2464 10.6198C25.196 10.7417 25.17 10.8722 25.17 11.0041C25.17 11.136 25.196 11.2665 25.2464 11.3883C25.2969 11.5102 25.3709 11.6209 25.4641 11.7141L28.2941 14.5441C28.3871 14.6378 28.4977 14.7122 28.6195 14.763C28.7414 14.8138 28.8721 14.8399 29.0041 14.8399C29.1361 14.8399 29.2668 14.8138 29.3887 14.763C29.5105 14.7122 29.6211 14.6378 29.7141 14.5441C29.8078 14.4511 29.8822 14.3405 29.933 14.2187C29.9838 14.0968 30.0099 13.9661 30.0099 13.8341C30.0099 13.7021 29.9838 13.5714 29.933 13.4495C29.8822 13.3277 29.8078 13.2171 29.7141 13.1241Z" fill="white"/>
</svg>
