<svg width="27" height="27" viewBox="0 0 27 27" fill="none" xmlns="http://www.w3.org/2000/svg">
<circle cx="13.5" cy="13.5" r="13.5" fill="black" fill-opacity="0.4"/>
<path d="M16.0714 7H10.9286C10.4171 7 9.92655 7.20541 9.56487 7.57103C9.20319 7.93665 9.00001 8.43254 9.00001 8.94961V19.3475C8.99956 19.4621 9.02905 19.5747 9.08549 19.6739C9.14194 19.7732 9.22333 19.8557 9.32143 19.9129C9.41916 19.97 9.53002 20 9.64286 20C9.75571 20 9.86656 19.97 9.96429 19.9129L13.5 17.8463L17.0357 19.9129C17.1337 19.9691 17.2445 19.9982 17.3571 19.9974C17.4698 19.9982 17.5806 19.9691 17.6786 19.9129C17.7767 19.8557 17.8581 19.7732 17.9145 19.6739C17.971 19.5747 18.0004 19.4621 18 19.3475V8.94961C18 8.43254 17.7968 7.93665 17.4351 7.57103C17.0735 7.20541 16.5829 7 16.0714 7ZM16.7143 18.2233L13.8214 16.5336C13.7237 16.4766 13.6128 16.4465 13.5 16.4465C13.3872 16.4465 13.2763 16.4766 13.1786 16.5336L10.2857 18.2233V8.94961C10.2857 8.77726 10.3534 8.61196 10.474 8.49008C10.5946 8.36821 10.7581 8.29974 10.9286 8.29974H16.0714C16.2419 8.29974 16.4054 8.36821 16.526 8.49008C16.6466 8.61196 16.7143 8.77726 16.7143 8.94961V18.2233Z" fill="#FCFCFC"/>
</svg>
