<svg width="72" height="72" viewBox="0 0 72 72" fill="none" xmlns="http://www.w3.org/2000/svg">
<path fill-rule="evenodd" clip-rule="evenodd" d="M36 3C54.0431 3 68.7042 17.4767 68.9956 35.4542L69 36C69 54.0431 54.5233 68.7042 36.5458 68.9956L36 69C17.7746 69 3 54.2294 3 36C3 17.9569 17.4767 3.29584 35.4542 3.00442L36 3ZM36.0486 8.9998L35.5514 9.00363C20.8283 9.24229 9 21.2536 9 36C9 50.7651 20.8463 62.758 35.5063 62.9966L35.9514 63.0002L36.4486 62.9964C51.0244 62.7601 62.7631 50.9855 62.9967 36.4887L63.0002 36.0486L62.9964 35.5514C62.7601 20.9756 50.9855 9.23686 36.4416 9.00354L36.0486 8.9998ZM36 15C24.402 15 15 24.402 15 36C15 47.598 24.402 57 36 57C47.598 57 57 47.598 57 36C57 24.402 47.598 15 36 15Z" fill="black"/>
<mask id="mask0_2_67947" style="mask-type:alpha" maskUnits="userSpaceOnUse" x="3" y="3" width="66" height="66">
<path fill-rule="evenodd" clip-rule="evenodd" d="M36 3C54.0431 3 68.7042 17.4767 68.9956 35.4542L69 36C69 54.0431 54.5233 68.7042 36.5458 68.9956L36 69C17.7746 69 3 54.2294 3 36C3 17.9569 17.4767 3.29584 35.4542 3.00442L36 3ZM36.0486 8.9998L35.5514 9.00363C20.8283 9.24229 9 21.2536 9 36C9 50.7651 20.8463 62.758 35.5063 62.9966L35.9514 63.0002L36.4486 62.9964C51.0244 62.7601 62.7631 50.9855 62.9967 36.4887L63.0002 36.0486L62.9964 35.5514C62.7601 20.9756 50.9855 9.23686 36.4416 9.00354L36.0486 8.9998ZM36 15C24.402 15 15 24.402 15 36C15 47.598 24.402 57 36 57C47.598 57 57 47.598 57 36C57 24.402 47.598 15 36 15Z" fill="white"/>
</mask>
<g mask="url(#mask0_2_67947)">
<rect x="-4" y="-4" width="80" height="80" fill="white"/>
</g>
</svg>
