<svg width="12" height="12" viewBox="0 0 12 12" fill="none" xmlns="http://www.w3.org/2000/svg">
<path d="M7.61851 6L11.6648 10.0463C12.1117 10.4932 12.1117 11.2179 11.6648 11.6648C11.2179 12.1117 10.4932 12.1117 10.0463 11.6648L6 7.61851L1.95372 11.6648C1.50678 12.1117 0.782145 12.1117 0.335205 11.6648C-0.111735 11.2179 -0.111735 10.4932 0.335205 10.0463L4.38149 6L0.335205 1.95372C-0.111735 1.50678 -0.111735 0.782145 0.335205 0.335205C0.782145 -0.111735 1.50678 -0.111735 1.95372 0.335205L6 4.38149L10.0463 0.335205C10.4932 -0.111735 11.2179 -0.111735 11.6648 0.335205C12.1117 0.782145 12.1117 1.50678 11.6648 1.95372L7.61851 6Z" fill="#19204E"/>
</svg>
