<svg width="40" height="40" viewBox="0 0 40 40" fill="none" xmlns="http://www.w3.org/2000/svg">
<path d="M0 8C0 3.58172 3.58172 0 8 0H32C36.4183 0 40 3.58172 40 8V32C40 36.4183 36.4183 40 32 40H8C3.58172 40 0 36.4183 0 32V8Z" fill="#E73725"/>
<path d="M27 11H26V10C26 9.73478 25.8946 9.48043 25.7071 9.29289C25.5196 9.10536 25.2652 9 25 9C24.7348 9 24.4804 9.10536 24.2929 9.29289C24.1054 9.48043 24 9.73478 24 10V11H16V10C16 9.73478 15.8946 9.48043 15.7071 9.29289C15.5196 9.10536 15.2652 9 15 9C14.7348 9 14.4804 9.10536 14.2929 9.29289C14.1054 9.48043 14 9.73478 14 10V11H13C12.2044 11 11.4413 11.3161 10.8787 11.8787C10.3161 12.4413 10 13.2044 10 14V28C10 28.7956 10.3161 29.5587 10.8787 30.1213C11.4413 30.6839 12.2044 31 13 31H27C27.7956 31 28.5587 30.6839 29.1213 30.1213C29.6839 29.5587 30 28.7956 30 28V14C30 13.2044 29.6839 12.4413 29.1213 11.8787C28.5587 11.3161 27.7956 11 27 11ZM28 28C28 28.2652 27.8946 28.5196 27.7071 28.7071C27.5196 28.8946 27.2652 29 27 29H13C12.7348 29 12.4804 28.8946 12.2929 28.7071C12.1054 28.5196 12 28.2652 12 28V19H28V28ZM28 17H12V14C12 13.7348 12.1054 13.4804 12.2929 13.2929C12.4804 13.1054 12.7348 13 13 13H14V14C14 14.2652 14.1054 14.5196 14.2929 14.7071C14.4804 14.8946 14.7348 15 15 15C15.2652 15 15.5196 14.8946 15.7071 14.7071C15.8946 14.5196 16 14.2652 16 14V13H24V14C24 14.2652 24.1054 14.5196 24.2929 14.7071C24.4804 14.8946 24.7348 15 25 15C25.2652 15 25.5196 14.8946 25.7071 14.7071C25.8946 14.5196 26 14.2652 26 14V13H27C27.2652 13 27.5196 13.1054 27.7071 13.2929C27.8946 13.4804 28 13.7348 28 14V17Z" fill="white"/>
<path d="M20.0192 27C20.217 27 20.4103 26.9414 20.5748 26.8315C20.7392 26.7216 20.8674 26.5654 20.9431 26.3827C21.0188 26.2 21.0386 25.9989 21 25.8049C20.9614 25.6109 20.8662 25.4327 20.7263 25.2929C20.5865 25.153 20.4083 25.0578 20.2143 25.0192C20.0203 24.9806 19.8193 25.0004 19.6365 25.0761C19.4538 25.1518 19.2976 25.28 19.1877 25.4444C19.0779 25.6089 19.0192 25.8022 19.0192 26C19.0192 26.2652 19.1246 26.5196 19.3121 26.7071C19.4996 26.8946 19.754 27 20.0192 27ZM25.0192 27C25.217 27 25.4103 26.9414 25.5748 26.8315C25.7392 26.7216 25.8674 26.5654 25.9431 26.3827C26.0188 26.2 26.0386 25.9989 26 25.8049C25.9614 25.6109 25.8662 25.4327 25.7263 25.2929C25.5865 25.153 25.4083 25.0578 25.2143 25.0192C25.0203 24.9806 24.8193 25.0004 24.6365 25.0761C24.4538 25.1518 24.2976 25.28 24.1877 25.4444C24.0779 25.6089 24.0192 25.8022 24.0192 26C24.0192 26.2652 24.1246 26.5196 24.3121 26.7071C24.4996 26.8946 24.754 27 25.0192 27ZM25.0192 23C25.217 23 25.4103 22.9414 25.5748 22.8315C25.7392 22.7216 25.8674 22.5654 25.9431 22.3827C26.0188 22.2 26.0386 21.9989 26 21.8049C25.9614 21.6109 25.8662 21.4327 25.7263 21.2929C25.5865 21.153 25.4083 21.0578 25.2143 21.0192C25.0203 20.9806 24.8193 21.0004 24.6365 21.0761C24.4538 21.1518 24.2976 21.28 24.1877 21.4444C24.0779 21.6089 24.0192 21.8022 24.0192 22C24.0192 22.2652 24.1246 22.5196 24.3121 22.7071C24.4996 22.8946 24.754 23 25.0192 23ZM20.0192 23C20.217 23 20.4103 22.9414 20.5748 22.8315C20.7392 22.7216 20.8674 22.5654 20.9431 22.3827C21.0188 22.2 21.0386 21.9989 21 21.8049C20.9614 21.6109 20.8662 21.4327 20.7263 21.2929C20.5865 21.153 20.4083 21.0578 20.2143 21.0192C20.0203 20.9806 19.8193 21.0004 19.6365 21.0761C19.4538 21.1518 19.2976 21.28 19.1877 21.4444C19.0779 21.6089 19.0192 21.8022 19.0192 22C19.0192 22.2652 19.1246 22.5196 19.3121 22.7071C19.4996 22.8946 19.754 23 20.0192 23ZM15.0192 23C15.217 23 15.4103 22.9414 15.5748 22.8315C15.7392 22.7216 15.8674 22.5654 15.9431 22.3827C16.0188 22.2 16.0386 21.9989 16 21.8049C15.9614 21.6109 15.8662 21.4327 15.7263 21.2929C15.5865 21.153 15.4083 21.0578 15.2143 21.0192C15.0203 20.9806 14.8193 21.0004 14.6365 21.0761C14.4538 21.1518 14.2976 21.28 14.1877 21.4444C14.0779 21.6089 14.0192 21.8022 14.0192 22C14.0192 22.2652 14.1246 22.5196 14.3121 22.7071C14.4996 22.8946 14.754 23 15.0192 23ZM15.0192 27C15.217 27 15.4103 26.9414 15.5748 26.8315C15.7392 26.7216 15.8674 26.5654 15.9431 26.3827C16.0188 26.2 16.0386 25.9989 16 25.8049C15.9614 25.6109 15.8662 25.4327 15.7263 25.2929C15.5865 25.153 15.4083 25.0578 15.2143 25.0192C15.0203 24.9806 14.8193 25.0004 14.6365 25.0761C14.4538 25.1518 14.2976 25.28 14.1877 25.4444C14.0779 25.6089 14.0192 25.8022 14.0192 26C14.0192 26.2652 14.1246 26.5196 14.3121 26.7071C14.4996 26.8946 14.754 27 15.0192 27Z" fill="white"/>
</svg>
