<svg width="32" height="32" viewBox="0 0 32 32" fill="none" xmlns="http://www.w3.org/2000/svg">
<path d="M25.3334 4.00004H24.0001V2.66671C24.0001 2.31309 23.8596 1.97395 23.6096 1.7239C23.3595 1.47385 23.0204 1.33337 22.6667 1.33337C22.3131 1.33337 21.974 1.47385 21.7239 1.7239C21.4739 1.97395 21.3334 2.31309 21.3334 2.66671V4.00004H10.6667V2.66671C10.6667 2.31309 10.5263 1.97395 10.2762 1.7239C10.0262 1.47385 9.68704 1.33337 9.33341 1.33337C8.97979 1.33337 8.64065 1.47385 8.39061 1.7239C8.14056 1.97395 8.00008 2.31309 8.00008 2.66671V4.00004H6.66675C5.60588 4.00004 4.58847 4.42147 3.83832 5.17161C3.08818 5.92176 2.66675 6.93918 2.66675 8.00004V26.6667C2.66675 27.7276 3.08818 28.745 3.83832 29.4951C4.58847 30.2453 5.60588 30.6667 6.66675 30.6667H25.3334C26.3943 30.6667 27.4117 30.2453 28.1618 29.4951C28.912 28.745 29.3334 27.7276 29.3334 26.6667V8.00004C29.3334 6.93918 28.912 5.92176 28.1618 5.17161C27.4117 4.42147 26.3943 4.00004 25.3334 4.00004ZM26.6667 26.6667C26.6667 27.0203 26.5263 27.3595 26.2762 27.6095C26.0262 27.8596 25.687 28 25.3334 28H6.66675C6.31313 28 5.97399 27.8596 5.72394 27.6095C5.47389 27.3595 5.33341 27.0203 5.33341 26.6667V14.6667H26.6667V26.6667ZM26.6667 12H5.33341V8.00004C5.33341 7.64642 5.47389 7.30728 5.72394 7.05723C5.97399 6.80718 6.31313 6.66671 6.66675 6.66671H8.00008V8.00004C8.00008 8.35366 8.14056 8.6928 8.39061 8.94285C8.64065 9.1929 8.97979 9.33337 9.33341 9.33337C9.68704 9.33337 10.0262 9.1929 10.2762 8.94285C10.5263 8.6928 10.6667 8.35366 10.6667 8.00004V6.66671H21.3334V8.00004C21.3334 8.35366 21.4739 8.6928 21.7239 8.94285C21.974 9.1929 22.3131 9.33337 22.6667 9.33337C23.0204 9.33337 23.3595 9.1929 23.6096 8.94285C23.8596 8.6928 24.0001 8.35366 24.0001 8.00004V6.66671H25.3334C25.687 6.66671 26.0262 6.80718 26.2762 7.05723C26.5263 7.30728 26.6667 7.64642 26.6667 8.00004V12Z" fill="#19204E"/>
<path d="M16.0255 25.3334C16.2892 25.3334 16.547 25.2552 16.7663 25.1087C16.9856 24.9622 17.1565 24.7539 17.2574 24.5103C17.3583 24.2666 17.3847 23.9986 17.3333 23.7399C17.2818 23.4813 17.1548 23.2437 16.9683 23.0572C16.7819 22.8708 16.5443 22.7438 16.2857 22.6923C16.027 22.6409 15.7589 22.6673 15.5153 22.7682C15.2717 22.8691 15.0634 23.04 14.9169 23.2593C14.7704 23.4785 14.6922 23.7363 14.6922 24C14.6922 24.3537 14.8327 24.6928 15.0827 24.9429C15.3328 25.1929 15.6719 25.3334 16.0255 25.3334ZM22.6922 25.3334C22.9559 25.3334 23.2137 25.2552 23.433 25.1087C23.6522 24.9622 23.8231 24.7539 23.924 24.5103C24.025 24.2666 24.0514 23.9986 23.9999 23.7399C23.9485 23.4813 23.8215 23.2437 23.635 23.0572C23.4485 22.8708 23.211 22.7438 22.9523 22.6923C22.6937 22.6409 22.4256 22.6673 22.182 22.7682C21.9383 22.8691 21.7301 23.04 21.5836 23.2593C21.4371 23.4785 21.3589 23.7363 21.3589 24C21.3589 24.3537 21.4993 24.6928 21.7494 24.9429C21.9994 25.1929 22.3386 25.3334 22.6922 25.3334ZM22.6922 20C22.9559 20 23.2137 19.9218 23.433 19.7753C23.6522 19.6288 23.8231 19.4206 23.924 19.177C24.025 18.9333 24.0514 18.6652 23.9999 18.4066C23.9485 18.1479 23.8215 17.9104 23.635 17.7239C23.4485 17.5374 23.211 17.4104 22.9523 17.359C22.6937 17.3075 22.4256 17.334 22.182 17.4349C21.9383 17.5358 21.7301 17.7067 21.5836 17.9259C21.4371 18.1452 21.3589 18.403 21.3589 18.6667C21.3589 19.0203 21.4993 19.3595 21.7494 19.6095C21.9994 19.8596 22.3386 20 22.6922 20ZM16.0255 20C16.2892 20 16.547 19.9218 16.7663 19.7753C16.9856 19.6288 17.1565 19.4206 17.2574 19.177C17.3583 18.9333 17.3847 18.6652 17.3333 18.4066C17.2818 18.1479 17.1548 17.9104 16.9683 17.7239C16.7819 17.5374 16.5443 17.4104 16.2857 17.359C16.027 17.3075 15.7589 17.334 15.5153 17.4349C15.2717 17.5358 15.0634 17.7067 14.9169 17.9259C14.7704 18.1452 14.6922 18.403 14.6922 18.6667C14.6922 19.0203 14.8327 19.3595 15.0827 19.6095C15.3328 19.8596 15.6719 20 16.0255 20ZM9.35887 20C9.62258 20 9.88037 19.9218 10.0996 19.7753C10.3189 19.6288 10.4898 19.4206 10.5907 19.177C10.6916 18.9333 10.718 18.6652 10.6666 18.4066C10.6151 18.1479 10.4882 17.9104 10.3017 17.7239C10.1152 17.5374 9.87763 17.4104 9.61899 17.359C9.36035 17.3075 9.09226 17.334 8.84863 17.4349C8.60499 17.5358 8.39675 17.7067 8.25025 17.9259C8.10374 18.1452 8.02554 18.403 8.02554 18.6667C8.02554 19.0203 8.16601 19.3595 8.41606 19.6095C8.66611 19.8596 9.00525 20 9.35887 20ZM9.35887 25.3334C9.62258 25.3334 9.88037 25.2552 10.0996 25.1087C10.3189 24.9622 10.4898 24.7539 10.5907 24.5103C10.6916 24.2666 10.718 23.9986 10.6666 23.7399C10.6151 23.4813 10.4882 23.2437 10.3017 23.0572C10.1152 22.8708 9.87763 22.7438 9.61899 22.6923C9.36035 22.6409 9.09226 22.6673 8.84863 22.7682C8.60499 22.8691 8.39675 23.04 8.25025 23.2593C8.10374 23.4785 8.02554 23.7363 8.02554 24C8.02554 24.3537 8.16601 24.6928 8.41606 24.9429C8.66611 25.1929 9.00525 25.3334 9.35887 25.3334Z" fill="#CA3131"/>
</svg>
