<svg width="328" height="160" viewBox="0 0 328 160" fill="none" xmlns="http://www.w3.org/2000/svg">
<path d="M0 8C0 3.58172 3.58172 0 8 0H320C324.418 0 328 3.58172 328 8V80V152C328 156.418 324.418 160 320 160H7.99999C3.58171 160 0 156.418 0 152V8Z" fill="#E73725"/>
<path d="M0 8C0 3.58172 3.58172 0 8 0H320C324.418 0 328 3.58172 328 8V80V152C328 156.418 324.418 160 320 160H7.99999C3.58171 160 0 156.418 0 152V8Z" fill="#202B36" fill-opacity="0.6"/>
<mask id="mask0_23_2645" style="mask-type:alpha" maskUnits="userSpaceOnUse" x="0" y="0" width="328" height="160">
<path d="M0 8C0 3.58172 3.58172 0 8 0H320C324.418 0 328 3.58172 328 8V152C328 156.418 324.418 160 320 160H7.99999C3.58171 160 0 156.418 0 152V8Z" fill="#0F5156"/>
</mask>
<g mask="url(#mask0_23_2645)">
</g>
<mask id="mask1_23_2645" style="mask-type:alpha" maskUnits="userSpaceOnUse" x="0" y="0" width="328" height="160">
<path d="M0 8C0 3.58172 3.58172 0 8 0H320C324.418 0 328 3.58172 328 8V152C328 156.418 324.418 160 320 160H7.99999C3.58171 160 0 156.418 0 152V8Z" fill="#0F5156"/>
</mask>
<g mask="url(#mask1_23_2645)">
<path fill-rule="evenodd" clip-rule="evenodd" d="M0 110.744H9.02C18.3133 110.744 36.3533 110.744 54.6667 105.824C72.98 100.904 91.02 101.064 109.333 94.5043C127.647 87.9443 145.687 84.6643 164 92.8643C182.313 101.064 200.353 110.744 218.667 122.224C236.98 133.704 255.02 136.984 273.333 130.424C291.647 123.864 309.687 107.464 318.98 99.2643L328 91.0643V159.944H318.98C309.687 159.944 291.647 159.944 273.333 159.944C255.02 159.944 236.98 159.944 218.667 159.944C200.353 159.944 182.313 159.944 164 159.944C145.687 159.944 127.647 159.944 109.333 159.944C91.02 159.944 72.98 159.944 54.6667 159.944C36.3533 159.944 18.3133 159.944 9.02 159.944H0V110.744Z" fill="#F5E0BA" fill-opacity="0.15"/>
<path fill-rule="evenodd" clip-rule="evenodd" d="M0 130.48L13.6667 128.84C27.3333 127.2 54.6667 123.92 82 125.56C109.333 127.2 136.667 133.76 164 133.76C191.333 133.76 218.667 127.2 246 122.28C273.333 117.36 300.667 114.08 314.333 112.44L328 110.8V160H314.333C300.667 160 273.333 160 246 160C218.667 160 191.333 160 164 160C136.667 160 109.333 160 82 160C54.6667 160 27.3333 160 13.6667 160H0V130.48Z" fill="#F5E0BA" fill-opacity="0.1"/>
<path fill-rule="evenodd" clip-rule="evenodd" d="M0 81L13.6667 89.2C27.3333 97.4 54.6667 113.8 82 125.28C109.333 136.76 136.667 143.32 164 136.76C191.333 130.2 218.667 110.52 246 108.88C273.333 107.24 300.667 123.64 314.333 131.84L328 140.04V159.72H314.333C300.667 159.72 273.333 159.72 246 159.72C218.667 159.72 191.333 159.72 164 159.72C136.667 159.72 109.333 159.72 82 159.72C54.6667 159.72 27.3333 159.72 13.6667 159.72H0V81Z" fill="#F5E0BA" fill-opacity="0.05"/>
</g>
</svg>
