<svg width="40" height="40" viewBox="0 0 40 40" fill="none" xmlns="http://www.w3.org/2000/svg">
<circle cx="20" cy="20" r="20" fill="#01383B"/>
<path d="M27 14.5H25.72L25.4 13.5C25.1926 12.9133 24.8077 12.4055 24.2989 12.0472C23.7901 11.6888 23.1824 11.4976 22.56 11.5H17.44C16.8115 11.5012 16.1993 11.6997 15.6898 12.0675C15.1802 12.4353 14.799 12.9539 14.6 13.55L14.28 14.55H13C12.2044 14.55 11.4413 14.8661 10.8787 15.4287C10.3161 15.9913 10 16.7544 10 17.55V25.55C10 26.3457 10.3161 27.1087 10.8787 27.6713C11.4413 28.234 12.2044 28.55 13 28.55H27C27.7956 28.55 28.5587 28.234 29.1213 27.6713C29.6839 27.1087 30 26.3457 30 25.55V17.55C30.0066 17.1519 29.9339 16.7564 29.7862 16.3866C29.6384 16.0168 29.4184 15.6802 29.1392 15.3963C28.86 15.1124 28.527 14.887 28.1597 14.7331C27.7924 14.5792 27.3982 14.5 27 14.5ZM28 25.5C28 25.7652 27.8946 26.0196 27.7071 26.2071C27.5196 26.3947 27.2652 26.5 27 26.5H13C12.7348 26.5 12.4804 26.3947 12.2929 26.2071C12.1054 26.0196 12 25.7652 12 25.5V17.5C12 17.2348 12.1054 16.9805 12.2929 16.7929C12.4804 16.6054 12.7348 16.5 13 16.5H15C15.2181 16.5114 15.4339 16.4511 15.6144 16.3283C15.795 16.2055 15.9304 16.027 16 15.82L16.54 14.18C16.6071 13.9814 16.7349 13.8089 16.9054 13.6869C17.0758 13.5648 17.2804 13.4995 17.49 13.5H22.61C22.8196 13.4995 23.0242 13.5648 23.1946 13.6869C23.3651 13.8089 23.4929 13.9814 23.56 14.18L24.1 15.82C24.1642 16.0108 24.2844 16.1777 24.445 16.299C24.6055 16.4204 24.799 16.4904 25 16.5H27C27.2652 16.5 27.5196 16.6054 27.7071 16.7929C27.8946 16.9805 28 17.2348 28 17.5V25.5ZM20 16.5C19.2089 16.5 18.4355 16.7346 17.7777 17.1741C17.1199 17.6137 16.6072 18.2384 16.3045 18.9693C16.0017 19.7002 15.9225 20.5045 16.0769 21.2804C16.2312 22.0563 16.6122 22.769 17.1716 23.3284C17.731 23.8879 18.4437 24.2688 19.2196 24.4232C19.9956 24.5775 20.7998 24.4983 21.5307 24.1955C22.2616 23.8928 22.8864 23.3801 23.3259 22.7223C23.7654 22.0645 24 21.2911 24 20.5C24 19.4392 23.5786 18.4217 22.8284 17.6716C22.0783 16.9214 21.0609 16.5 20 16.5ZM20 22.5C19.6044 22.5 19.2178 22.3827 18.8889 22.163C18.56 21.9432 18.3036 21.6308 18.1522 21.2654C18.0009 20.8999 17.9613 20.4978 18.0384 20.1098C18.1156 19.7219 18.3061 19.3655 18.5858 19.0858C18.8655 18.8061 19.2219 18.6156 19.6098 18.5385C19.9978 18.4613 20.3999 18.5009 20.7654 18.6523C21.1308 18.8036 21.4432 19.06 21.6629 19.3889C21.8827 19.7178 22 20.1045 22 20.5C22 21.0305 21.7893 21.5392 21.4142 21.9142C21.0391 22.2893 20.5304 22.5 20 22.5Z" fill="white"/>
</svg>
