<svg width="220" height="220" viewBox="0 0 220 220" fill="none" xmlns="http://www.w3.org/2000/svg">
<g clip-path="url(#clip0_1_6994)">
<path d="M198.421 90.792C198.356 90.7921 198.294 90.7723 198.241 90.7355L110.906 29.9133C110.641 29.7291 110.325 29.6306 110.001 29.6312C109.678 29.6317 109.362 29.7312 109.097 29.9164L22.392 90.7348C22.3234 90.7829 22.2385 90.8018 22.156 90.7873C22.0735 90.7729 22.0001 90.7262 21.952 90.6576C21.9039 90.589 21.8851 90.5042 21.8995 90.4217C21.914 90.3391 21.9607 90.2658 22.0293 90.2177L108.735 29.3992C109.106 29.1401 109.548 29.0007 110 29C110.453 28.9993 110.895 29.1371 111.267 29.395L198.602 90.217C198.657 90.2555 198.698 90.3105 198.72 90.3742C198.742 90.4378 198.743 90.5067 198.722 90.5709C198.702 90.635 198.662 90.6911 198.608 90.7309C198.554 90.7706 198.488 90.7921 198.421 90.792L198.421 90.792Z" fill="#3F3D56"/>
<path d="M27.3467 92.9479L110.087 31.627L193.456 97.3112L114.35 144.206L71.4031 134.416L27.3467 92.9479Z" fill="#E6E6E6"/>
<path d="M75.028 173.171H34.1521C33.9012 173.171 33.6526 173.122 33.4206 173.026C33.1886 172.93 32.9778 172.79 32.8002 172.612C32.6226 172.435 32.4817 172.224 32.3856 171.993C32.2895 171.761 32.24 171.512 32.24 171.261C32.24 171.01 32.2895 170.762 32.3856 170.53C32.4817 170.298 32.6226 170.087 32.8002 169.91C32.9778 169.733 33.1886 169.592 33.4206 169.496C33.6526 169.4 33.9012 169.351 34.1521 169.352H75.028C75.279 169.351 75.5276 169.4 75.7596 169.496C75.9916 169.592 76.2024 169.733 76.38 169.91C76.5576 170.087 76.6985 170.298 76.7946 170.53C76.8907 170.762 76.9402 171.01 76.9402 171.261C76.9402 171.512 76.8907 171.761 76.7946 171.993C76.6985 172.224 76.5576 172.435 76.38 172.612C76.2024 172.79 75.9916 172.93 75.7596 173.026C75.5276 173.122 75.279 173.171 75.028 173.171Z" fill="#E73725"/>
<path d="M48.8175 164.96H34.1521C33.9012 164.961 33.6526 164.912 33.4206 164.816C33.1886 164.72 32.9778 164.579 32.8002 164.402C32.6226 164.225 32.4817 164.014 32.3856 163.782C32.2895 163.55 32.24 163.302 32.24 163.051C32.24 162.8 32.2895 162.551 32.3856 162.319C32.4817 162.088 32.6226 161.877 32.8002 161.7C32.9778 161.522 33.1886 161.382 33.4206 161.286C33.6526 161.19 33.9012 161.141 34.1521 161.141H48.8175C49.0685 161.141 49.3171 161.19 49.5491 161.286C49.781 161.382 49.9919 161.522 50.1694 161.7C50.347 161.877 50.4879 162.088 50.5841 162.319C50.6802 162.551 50.7297 162.8 50.7297 163.051C50.7297 163.302 50.6802 163.55 50.5841 163.782C50.4879 164.014 50.347 164.225 50.1694 164.402C49.9919 164.579 49.781 164.72 49.5491 164.816C49.3171 164.912 49.0685 164.961 48.8175 164.96Z" fill="#E73725"/>
<path d="M111.251 127.103C110.94 127.103 110.632 127.043 110.345 126.925L59.3159 105.752V39.4762C59.3166 38.8901 59.5497 38.3282 59.9641 37.9138C60.3785 37.4994 60.9404 37.2663 61.5264 37.2656H159.421C160.007 37.2663 160.569 37.4994 160.984 37.9138C161.398 38.3282 161.631 38.8901 161.632 39.4762V105.798L161.536 105.839L112.184 126.915C111.889 127.039 111.571 127.103 111.251 127.103Z" fill="white"/>
<path d="M111.251 127.261C110.919 127.261 110.591 127.197 110.284 127.072L59.158 105.858V39.4763C59.1587 38.8484 59.4084 38.2464 59.8524 37.8024C60.2965 37.3584 60.8985 37.1086 61.5264 37.1079H159.421C160.049 37.1086 160.651 37.3584 161.095 37.8024C161.539 38.2464 161.789 38.8484 161.79 39.4763V105.903L112.246 127.06C111.931 127.193 111.592 127.261 111.251 127.261ZM59.7895 105.436L110.525 126.488C110.998 126.68 111.528 126.677 111.999 126.479L161.158 105.486V39.4763C161.157 39.0159 160.974 38.5744 160.649 38.2488C160.323 37.9232 159.882 37.74 159.421 37.7395H61.5264C61.0659 37.74 60.6245 37.9232 60.2989 38.2488C59.9733 38.5744 59.7901 39.0159 59.7895 39.4763L59.7895 105.436Z" fill="#3F3D56"/>
<path d="M197.789 90.1606H197.726L161.474 105.641L111.873 126.821C111.679 126.902 111.471 126.945 111.261 126.946C111.05 126.947 110.842 126.906 110.647 126.827L59.4737 105.596L22.3305 90.1859L22.2737 90.1606H22.2105C21.6245 90.1613 21.0626 90.3944 20.6482 90.8088C20.2338 91.2232 20.0007 91.7851 20 92.3712V188.371C20.0007 188.957 20.2338 189.519 20.6482 189.934C21.0626 190.348 21.6245 190.581 22.2105 190.582H197.789C198.376 190.581 198.937 190.348 199.352 189.934C199.766 189.519 199.999 188.957 200 188.371V92.3712C199.999 91.7851 199.766 91.2232 199.352 90.8088C198.937 90.3944 198.376 90.1613 197.789 90.1606ZM199.368 188.371C199.368 188.79 199.202 189.191 198.906 189.487C198.61 189.784 198.208 189.95 197.789 189.95H22.2105C21.7918 189.95 21.3903 189.784 21.0942 189.487C20.7982 189.191 20.6317 188.79 20.6316 188.371V92.3712C20.6322 91.9629 20.7905 91.5706 21.0736 91.2763C21.3567 90.982 21.7426 90.8086 22.1505 90.7922L59.4737 106.279L110.404 127.411C110.956 127.635 111.573 127.632 112.122 127.402L161.474 106.326L197.853 90.7922C198.26 90.8098 198.645 90.9837 198.927 91.2778C199.209 91.5719 199.367 91.9635 199.368 92.3712V188.371Z" fill="#3F3D56"/>
<path d="M110.741 108.31C108.857 108.313 107.023 107.704 105.516 106.574L105.422 106.504L85.745 91.4384C84.8337 90.7401 84.0689 89.8692 83.4941 88.8754C82.9194 87.8816 82.5461 86.7843 82.3954 85.6462C82.2448 84.5081 82.3198 83.3515 82.6161 82.2424C82.9125 81.1332 83.4244 80.0933 84.1226 79.1821C84.8208 78.2708 85.6917 77.5059 86.6855 76.9312C87.6793 76.3565 88.7766 75.9832 89.9147 75.8325C91.0528 75.6818 92.2095 75.7568 93.3186 76.0532C94.4277 76.3495 95.4676 76.8614 96.3789 77.5597L109.124 87.3326L139.244 48.0526C139.942 47.1416 140.813 46.377 141.807 45.8026C142.801 45.2283 143.899 44.8553 145.037 44.7051C146.175 44.5548 147.332 44.6302 148.441 44.927C149.55 45.2238 150.589 45.7361 151.5 46.4347L151.313 46.6889L151.505 46.4384C153.343 47.8507 154.545 49.9344 154.849 52.2323C155.152 54.5301 154.532 56.8544 153.123 58.6952L117.696 104.898C116.876 105.963 115.823 106.824 114.616 107.416C113.41 108.008 112.084 108.313 110.741 108.31Z" fill="#E73725"/>
</g>
<defs>
<clipPath id="clip0_1_6994">
<rect width="180" height="161.582" fill="white" transform="translate(20 29)"/>
</clipPath>
</defs>
</svg>
