<svg width="220" height="220" viewBox="0 0 220 220" fill="none" xmlns="http://www.w3.org/2000/svg">
<g clip-path="url(#clip0_1_6974)">
<path d="M198.566 186.92C198.251 187.359 197.934 187.796 197.619 188.229C196.715 188.852 195.643 189.184 194.546 189.182H25.4546C24.4059 189.183 23.3794 188.88 22.4995 188.309C22.2075 187.924 21.9187 187.536 21.6267 187.148L21.9187 186.987L107.52 139.539C108.279 139.119 109.133 138.898 110.001 138.897C110.869 138.896 111.723 139.115 112.484 139.533L198.277 186.759L198.566 186.92Z" fill="#E73725"/>
<path d="M194.545 87.1495L120.358 44.3056C117.237 42.5036 113.698 41.554 110.095 41.5522C106.491 41.5505 102.951 42.4965 99.8289 44.2955L25.4545 87.1495C24.0085 87.1516 22.6223 87.7269 21.5999 88.7494C20.5774 89.7719 20.002 91.1581 20 92.6041V183.727C20.0017 185.173 20.5769 186.56 21.5995 187.582C22.622 188.605 24.0084 189.18 25.4545 189.182H194.545C195.991 189.179 197.377 188.604 198.4 187.581C199.422 186.559 199.998 185.173 200 183.727V92.6041C199.998 91.1581 199.423 89.7719 198.4 88.7494C197.378 87.7269 195.991 87.1516 194.545 87.1495ZM199.358 183.727C199.355 185.003 198.847 186.225 197.945 187.127C197.043 188.029 195.821 188.537 194.545 188.54H25.4545C24.1788 188.538 22.956 188.03 22.0539 187.128C21.1518 186.226 20.644 185.003 20.6417 183.727V92.6041C20.6433 91.3281 21.1508 90.1049 22.0531 89.2026C22.9553 88.3004 24.1786 87.7928 25.4545 87.7913L99.8289 44.9372C102.951 43.1382 106.491 42.1922 110.095 42.194C113.698 42.1957 117.237 43.1453 120.358 44.9473L194.545 87.7913C195.821 87.7928 197.045 88.3004 197.947 89.2026C198.849 90.1049 199.357 91.3281 199.358 92.6041V183.727Z" fill="#3F3D56"/>
<path d="M110.096 138.705C109.537 138.707 108.982 138.614 108.455 138.43L108.358 138.395L108.338 138.18C108.277 138.209 108.216 138.238 108.155 138.265L108.091 138.293L108.026 138.265C107.891 138.205 107.757 138.138 107.627 138.065L48.5562 104.872V37.0965C48.5579 35.5227 49.1839 34.014 50.2967 32.9012C51.4095 31.7884 52.9182 31.1624 54.492 31.1606H165.508C167.082 31.1624 168.591 31.7884 169.703 32.9012C170.816 34.014 171.442 35.5227 171.444 37.0965V104.958L171.362 105.004L112.565 138.065C111.81 138.486 110.96 138.706 110.096 138.705Z" fill="white"/>
<path d="M110.096 138.865C109.519 138.867 108.946 138.771 108.401 138.581L108.207 138.512L108.199 138.421L108.091 138.468L107.962 138.411C107.822 138.35 107.683 138.28 107.548 138.205L48.3958 104.965V37.0963C48.3976 35.48 49.0404 33.9304 50.1833 32.7876C51.3262 31.6447 52.8757 31.0018 54.492 31H165.508C167.124 31.0018 168.674 31.6447 169.817 32.7876C170.96 33.9305 171.602 35.48 171.604 37.0963V105.052L112.644 138.205C111.865 138.639 110.988 138.867 110.096 138.865ZM108.808 138.039C109.988 138.377 111.254 138.236 112.33 137.645L170.963 104.676V37.0963C170.961 35.6501 170.386 34.2637 169.363 33.2411C168.341 32.2185 166.954 31.6433 165.508 31.6417H54.492C53.0459 31.6433 51.6594 32.2185 50.6369 33.2411C49.6143 34.2637 49.0391 35.6501 49.0375 37.0963V104.59L52.8844 106.75L107.863 137.645C107.938 137.688 108.014 137.727 108.091 137.764C108.168 137.727 108.244 137.688 108.319 137.646L108.751 137.402L108.808 138.039Z" fill="#3F3D56"/>
<path d="M198.579 89.5177L175.294 102.609L171.284 104.864L112.487 137.925C111.756 138.333 110.933 138.546 110.096 138.544C109.556 138.546 109.019 138.456 108.508 138.278C108.366 138.233 108.227 138.179 108.091 138.118C107.96 138.06 107.831 137.996 107.706 137.925L52.7274 107.03L48.7167 104.778L21.4697 89.4664C21.3956 89.4239 21.3413 89.3539 21.3184 89.2716C21.2956 89.1893 21.3062 89.1014 21.3478 89.0268C21.3896 88.9528 21.4589 88.8985 21.5407 88.8756C21.6226 88.8527 21.7101 88.8633 21.7841 88.9049L48.7167 104.04L52.7274 106.292L108.02 137.364C108.204 137.467 108.395 137.556 108.592 137.63C108.675 137.662 108.762 137.691 108.848 137.717C109.398 137.885 109.975 137.941 110.546 137.88C111.118 137.82 111.671 137.644 112.172 137.364L171.284 104.129L175.294 101.874L198.264 88.9594C198.301 88.9388 198.341 88.9256 198.383 88.9205C198.425 88.9155 198.467 88.9187 198.508 88.93C198.548 88.9413 198.586 88.9605 198.619 88.9865C198.652 89.0125 198.68 89.0447 198.701 89.0814C198.721 89.118 198.734 89.1584 198.74 89.2001C198.745 89.2419 198.741 89.2843 198.73 89.3248C198.719 89.3653 198.7 89.4032 198.674 89.4363C198.648 89.4694 198.615 89.4971 198.579 89.5177Z" fill="#3F3D56"/>
<path d="M72.6443 52.1767H63.6604C62.9796 52.1767 62.3267 51.9062 61.8453 51.4248C61.3639 50.9435 61.0935 50.2906 61.0935 49.6098C61.0935 48.929 61.3639 48.2762 61.8453 47.7948C62.3267 47.3134 62.9796 47.043 63.6604 47.043H72.6443C73.3251 47.043 73.978 47.3134 74.4593 47.7948C74.9407 48.2762 75.2112 48.929 75.2112 49.6098C75.2112 50.2906 74.9407 50.9435 74.4593 51.4248C73.978 51.9062 73.3251 52.1767 72.6443 52.1767Z" fill="#E73725"/>
<path d="M83.2326 60.8397H63.6604C62.9796 60.8397 62.3267 60.5693 61.8453 60.0879C61.3639 59.6066 61.0935 58.9537 61.0935 58.2729C61.0935 57.5921 61.3639 56.9392 61.8453 56.4579C62.3267 55.9765 62.9796 55.7061 63.6604 55.7061H83.2326C83.9133 55.7061 84.5662 55.9765 85.0476 56.4579C85.529 56.9392 85.7994 57.5921 85.7994 58.2729C85.7994 58.9537 85.529 59.6066 85.0476 60.0879C84.5662 60.5693 83.9133 60.8397 83.2326 60.8397Z" fill="#E6E6E6"/>
<path d="M137.914 83.9413H82.4064C81.7257 83.9413 81.0728 83.6709 80.5914 83.1895C80.11 82.7081 79.8396 82.0552 79.8396 81.3745C79.8396 80.6937 80.11 80.0408 80.5914 79.5594C81.0728 79.078 81.7257 78.8076 82.4064 78.8076H137.914C138.595 78.8076 139.248 79.078 139.729 79.5594C140.211 80.0408 140.481 80.6937 140.481 81.3745C140.481 82.0552 140.211 82.7081 139.729 83.1895C139.248 83.6709 138.595 83.9413 137.914 83.9413Z" fill="#E73725"/>
<path d="M143.048 93.8876H76.9519C76.2711 93.8876 75.6182 93.6172 75.1368 93.1358C74.6554 92.6544 74.385 92.0015 74.385 91.3208C74.385 90.64 74.6554 89.9871 75.1368 89.5057C75.6182 89.0243 76.2711 88.7539 76.9519 88.7539H143.048C143.729 88.7539 144.382 89.0243 144.863 89.5057C145.345 89.9871 145.615 90.64 145.615 91.3208C145.615 92.0015 145.345 92.6544 144.863 93.1358C144.382 93.6172 143.729 93.8876 143.048 93.8876Z" fill="#E6E6E6"/>
<path d="M143.048 103.514H76.9519C76.2711 103.514 75.6182 103.243 75.1368 102.762C74.6554 102.28 74.385 101.627 74.385 100.947C74.385 100.266 74.6554 99.6131 75.1368 99.1317C75.6182 98.6503 76.2711 98.3799 76.9519 98.3799H143.048C143.729 98.3799 144.382 98.6503 144.863 99.1317C145.345 99.6131 145.615 100.266 145.615 100.947C145.615 101.627 145.345 102.28 144.863 102.762C144.382 103.243 143.729 103.514 143.048 103.514Z" fill="#E6E6E6"/>
</g>
<defs>
<clipPath id="clip0_1_6974">
<rect width="180" height="158.182" fill="white" transform="translate(20 31)"/>
</clipPath>
</defs>
</svg>
