<svg width="220" height="220" viewBox="0 0 220 220" fill="none" xmlns="http://www.w3.org/2000/svg">
<g clip-path="url(#clip0_156_19150)">
<path d="M134.271 61.515H85.7693C84.664 61.5163 83.6044 61.956 82.8228 62.7375C82.0413 63.5191 81.6016 64.5787 81.6003 65.684V173.481L81.0444 173.65L69.1461 177.294C68.5822 177.466 67.9731 177.407 67.4525 177.13C66.932 176.854 66.5425 176.382 66.3696 175.818L30.9774 60.2115C30.8052 59.6476 30.8639 59.0383 31.1406 58.5177C31.4173 57.9971 31.8895 57.6076 32.4532 57.4349L50.7886 51.8206L103.943 35.5504L122.279 29.9361C122.558 29.8503 122.851 29.8202 123.142 29.8478C123.432 29.8754 123.715 29.96 123.972 30.0968C124.23 30.2337 124.459 30.42 124.645 30.6452C124.83 30.8704 124.97 31.13 125.055 31.4092L134.102 60.9591L134.271 61.515Z" fill="#F2F2F2"/>
<path d="M144.855 60.9587L133.952 25.3443C133.77 24.7509 133.474 24.1991 133.079 23.7203C132.684 23.2416 132.199 22.8453 131.651 22.5541C131.103 22.263 130.503 22.0827 129.885 22.0235C129.268 21.9643 128.644 22.0274 128.051 22.2092L102.273 30.0997L49.1208 46.3728L23.3424 54.2661C22.1449 54.6338 21.1422 55.4617 20.5544 56.5679C19.9666 57.6742 19.8417 58.9684 20.2072 60.1666L57.4726 181.882C57.7695 182.849 58.3686 183.696 59.182 184.298C59.9953 184.9 60.9801 185.225 61.9919 185.226C62.4602 185.226 62.9258 185.156 63.3731 185.017L81.0442 179.609L81.6 179.436V178.855L81.0442 179.025L63.2092 184.486C62.1522 184.809 61.0105 184.698 60.0346 184.18C59.0587 183.662 58.3282 182.777 58.0035 181.721L20.741 60.0027C20.5801 59.4793 20.524 58.9293 20.576 58.3842C20.6279 57.8392 20.7869 57.3097 21.0437 56.8261C21.3006 56.3426 21.6503 55.9144 22.0729 55.5662C22.4955 55.218 22.9826 54.9566 23.5063 54.7969L49.2847 46.9036L102.437 30.6334L128.215 22.7401C128.612 22.6188 129.025 22.557 129.441 22.5566C130.332 22.5586 131.199 22.846 131.916 23.3766C132.632 23.9073 133.159 24.6533 133.421 25.5055L144.274 60.9587L144.446 61.5146H145.025L144.855 60.9587Z" fill="#3F3D56"/>
<path d="M54.0973 57.5257C53.5616 57.5253 53.0402 57.3533 52.6094 57.0348C52.1787 56.7163 51.8613 56.2682 51.7039 55.7562L48.1241 44.063C48.0279 43.7489 47.9945 43.4189 48.0258 43.0919C48.0572 42.7649 48.1526 42.4473 48.3067 42.1572C48.4608 41.8671 48.6706 41.6102 48.924 41.4012C49.1774 41.1921 49.4695 41.0351 49.7836 40.939L98.6831 25.9684C99.3174 25.7748 100.003 25.8408 100.588 26.152C101.174 26.4631 101.612 26.9939 101.807 27.6279L105.387 39.3212C105.581 39.9555 105.514 40.6407 105.203 41.2264C104.892 41.8121 104.362 42.2505 103.728 42.4453L54.8281 57.4159C54.5913 57.4886 54.345 57.5256 54.0973 57.5257Z" fill="#19204E"/>
<path d="M72.8499 34.4943C75.9199 34.4943 78.4086 32.0056 78.4086 28.9356C78.4086 25.8657 75.9199 23.377 72.8499 23.377C69.78 23.377 67.2913 25.8657 67.2913 28.9356C67.2913 32.0056 69.78 34.4943 72.8499 34.4943Z" fill="#19204E"/>
<path d="M72.8502 32.4559C74.7942 32.4559 76.3702 30.8799 76.3702 28.9359C76.3702 26.9919 74.7942 25.416 72.8502 25.416C70.9062 25.416 69.3303 26.9919 69.3303 28.9359C69.3303 30.8799 70.9062 32.4559 72.8502 32.4559Z" fill="white"/>
<path d="M187.493 183.806H93.5514C92.9251 183.805 92.3246 183.556 91.8817 183.113C91.4388 182.67 91.1897 182.07 91.189 181.443V68.88C91.1897 68.2537 91.4388 67.6532 91.8817 67.2103C92.3246 66.7674 92.9251 66.5183 93.5514 66.5176H187.493C188.119 66.5183 188.72 66.7674 189.163 67.2103C189.606 67.6532 189.855 68.2537 189.855 68.88V181.443C189.855 182.07 189.606 182.67 189.163 183.113C188.72 183.556 188.119 183.805 187.493 183.806Z" fill="#E6E6E6"/>
<path d="M144.274 60.959H85.7693C84.5167 60.9608 83.316 61.4591 82.4303 62.3448C81.5446 63.2305 81.0462 64.4313 81.0444 65.6839V179.025L81.6003 178.856V65.6839C81.6016 64.5786 82.0413 63.519 82.8229 62.7374C83.6044 61.9559 84.664 61.5162 85.7693 61.5149H144.447L144.274 60.959ZM195.275 60.959H85.7693C84.5167 60.9608 83.316 61.4591 82.4303 62.3448C81.5446 63.2305 81.0462 64.4313 81.0444 65.6839V192.978C81.0462 194.23 81.5446 195.431 82.4303 196.317C83.316 197.202 84.5167 197.701 85.7693 197.702H195.275C196.528 197.701 197.729 197.202 198.614 196.317C199.5 195.431 199.998 194.23 200 192.978V65.6839C199.998 64.4313 199.5 63.2305 198.614 62.3448C197.729 61.4591 196.528 60.9608 195.275 60.959ZM199.444 192.978C199.443 194.083 199.003 195.142 198.222 195.924C197.44 196.706 196.381 197.145 195.275 197.147H85.7693C84.664 197.145 83.6044 196.706 82.8229 195.924C82.0413 195.142 81.6016 194.083 81.6003 192.978V65.6839C81.6016 64.5786 82.0413 63.519 82.8229 62.7374C83.6044 61.9559 84.664 61.5162 85.7693 61.5149H195.275C196.381 61.5162 197.44 61.9559 198.222 62.7374C199.003 63.519 199.443 64.5786 199.444 65.6839V192.978Z" fill="#3F3D56"/>
<path d="M166.092 73.1889H114.952C114.289 73.1882 113.653 72.9244 113.184 72.4555C112.715 71.9865 112.452 71.3507 112.451 70.6875V58.4584C112.452 57.7953 112.715 57.1594 113.184 56.6905C113.653 56.2216 114.289 55.9578 114.952 55.957H166.092C166.755 55.9578 167.391 56.2216 167.86 56.6905C168.329 57.1594 168.593 57.7953 168.594 58.4584V70.6875C168.593 71.3507 168.329 71.9865 167.86 72.4555C167.391 72.9244 166.755 73.1882 166.092 73.1889Z" fill="#19204E"/>
<path d="M140.522 56.7892C143.592 56.7892 146.081 54.3005 146.081 51.2306C146.081 48.1606 143.592 45.6719 140.522 45.6719C137.452 45.6719 134.964 48.1606 134.964 51.2306C134.964 54.3005 137.452 56.7892 140.522 56.7892Z" fill="#19204E"/>
<path d="M140.522 54.6172C142.392 54.6172 143.908 53.1014 143.908 51.2315C143.908 49.3616 142.392 47.8457 140.522 47.8457C138.652 47.8457 137.136 49.3616 137.136 51.2315C137.136 53.1014 138.652 54.6172 140.522 54.6172Z" fill="white"/>
</g>
<defs>
<clipPath id="clip0_156_19150">
<rect width="180" height="175.702" fill="white" transform="translate(20 22)"/>
</clipPath>
</defs>
</svg>
