<svg width="15" height="14" viewBox="0 0 15 14" fill="none" xmlns="http://www.w3.org/2000/svg">
<path d="M12.7222 0.333496H2.61112C2.03649 0.333496 1.48539 0.54421 1.07906 0.919283C0.672731 1.29436 0.444458 1.80306 0.444458 2.3335V3.1135C0.444355 3.38879 0.505823 3.66114 0.625014 3.9135V3.9535C0.727049 4.16748 0.871575 4.36194 1.05112 4.52683L5.50001 8.60683V13.0002C5.49977 13.1135 5.53081 13.2249 5.5902 13.3241C5.64959 13.4232 5.73538 13.5068 5.83946 13.5668C5.95439 13.6326 6.08702 13.6672 6.22224 13.6668C6.33529 13.6662 6.44661 13.6411 6.54724 13.5935L9.43612 12.2602C9.55523 12.2048 9.65539 12.12 9.7255 12.0153C9.79562 11.9105 9.83294 11.7899 9.83335 11.6668V8.60683L14.2533 4.52683C14.4329 4.36194 14.5774 4.16748 14.6795 3.9535V3.9135C14.8086 3.66312 14.8799 3.39068 14.8889 3.1135V2.3335C14.8889 1.80306 14.6606 1.29436 14.2543 0.919283C13.848 0.54421 13.2969 0.333496 12.7222 0.333496ZM8.59835 7.86016C8.53141 7.92246 8.47845 7.99633 8.44251 8.07756C8.40657 8.15878 8.38835 8.24576 8.3889 8.3335V11.2535L6.94446 11.9202V8.3335C6.94501 8.24576 6.92679 8.15878 6.89085 8.07756C6.85491 7.99633 6.80195 7.92246 6.73501 7.86016L2.90724 4.3335H12.4261L8.59835 7.86016ZM13.4445 3.00016H1.8889V2.3335C1.8889 2.15669 1.96499 1.98712 2.10044 1.86209C2.23588 1.73707 2.41958 1.66683 2.61112 1.66683H12.7222C12.9138 1.66683 13.0975 1.73707 13.2329 1.86209C13.3684 1.98712 13.4445 2.15669 13.4445 2.3335V3.00016Z" fill="#B4A9A7"/>
</svg>
