<svg width="16" height="16" viewBox="0 0 16 16" fill="none" xmlns="http://www.w3.org/2000/svg">
<path d="M8.00008 1.3335C6.58559 1.3335 5.22904 1.8954 4.22885 2.89559C3.22865 3.89579 2.66675 5.25234 2.66675 6.66683C2.66675 10.2668 7.36675 14.3335 7.56675 14.5068C7.6875 14.6101 7.84118 14.6669 8.00008 14.6669C8.15898 14.6669 8.31266 14.6101 8.43341 14.5068C8.66675 14.3335 13.3334 10.2668 13.3334 6.66683C13.3334 5.25234 12.7715 3.89579 11.7713 2.89559C10.7711 1.8954 9.41457 1.3335 8.00008 1.3335ZM8.00008 13.1002C6.58008 11.7668 4.00008 8.8935 4.00008 6.66683C4.00008 5.60596 4.42151 4.58855 5.17165 3.8384C5.9218 3.08826 6.93922 2.66683 8.00008 2.66683C9.06095 2.66683 10.0784 3.08826 10.8285 3.8384C11.5787 4.58855 12.0001 5.60596 12.0001 6.66683C12.0001 8.8935 9.42008 11.7735 8.00008 13.1002ZM8.00008 4.00016C7.47266 4.00016 6.95709 4.15656 6.51856 4.44958C6.08003 4.74259 5.73824 5.15907 5.5364 5.64634C5.33457 6.13361 5.28176 6.66979 5.38465 7.18707C5.48755 7.70435 5.74152 8.17951 6.11446 8.55245C6.4874 8.92539 6.96256 9.17936 7.47984 9.28226C7.99712 9.38515 8.5333 9.33234 9.02057 9.13051C9.50784 8.92868 9.92432 8.58688 10.2173 8.14835C10.5104 7.70982 10.6667 7.19425 10.6667 6.66683C10.6667 5.95959 10.3858 5.28131 9.8857 4.78121C9.3856 4.28111 8.70732 4.00016 8.00008 4.00016ZM8.00008 8.00016C7.73637 8.00016 7.47859 7.92196 7.25932 7.77546C7.04006 7.62895 6.86916 7.42071 6.76824 7.17707C6.66733 6.93344 6.64092 6.66535 6.69237 6.40671C6.74381 6.14807 6.8708 5.91049 7.05727 5.72402C7.24374 5.53755 7.48132 5.41056 7.73996 5.35912C7.9986 5.30767 8.26669 5.33407 8.51033 5.43499C8.75396 5.53591 8.9622 5.7068 9.10871 5.92607C9.25522 6.14533 9.33341 6.40312 9.33341 6.66683C9.33341 7.02045 9.19294 7.35959 8.94289 7.60964C8.69284 7.85969 8.3537 8.00016 8.00008 8.00016Z" fill="#E73725"/>
</svg>
