<svg width="16" height="16" viewBox="0 0 16 16" fill="none" xmlns="http://www.w3.org/2000/svg">
<path d="M7.99996 1.3335C6.58547 1.3335 5.22892 1.8954 4.22872 2.89559C3.22853 3.89579 2.66663 5.25234 2.66663 6.66683C2.66663 10.2668 7.36663 14.3335 7.56663 14.5068C7.68738 14.6101 7.84106 14.6669 7.99996 14.6669C8.15886 14.6669 8.31254 14.6101 8.43329 14.5068C8.66663 14.3335 13.3333 10.2668 13.3333 6.66683C13.3333 5.25234 12.7714 3.89579 11.7712 2.89559C10.771 1.8954 9.41445 1.3335 7.99996 1.3335ZM7.99996 13.1002C6.57996 11.7668 3.99996 8.8935 3.99996 6.66683C3.99996 5.60596 4.42139 4.58855 5.17153 3.8384C5.92168 3.08826 6.93909 2.66683 7.99996 2.66683C9.06082 2.66683 10.0782 3.08826 10.8284 3.8384C11.5785 4.58855 12 5.60596 12 6.66683C12 8.8935 9.41996 11.7735 7.99996 13.1002ZM7.99996 4.00016C7.47254 4.00016 6.95697 4.15656 6.51844 4.44958C6.07991 4.74259 5.73811 5.15907 5.53628 5.64634C5.33445 6.13361 5.28164 6.66979 5.38453 7.18707C5.48743 7.70435 5.7414 8.17951 6.11434 8.55245C6.48728 8.92539 6.96244 9.17936 7.47972 9.28226C7.997 9.38515 8.53318 9.33234 9.02045 9.13051C9.50772 8.92868 9.92419 8.58688 10.2172 8.14835C10.5102 7.70982 10.6666 7.19425 10.6666 6.66683C10.6666 5.95959 10.3857 5.28131 9.88558 4.78121C9.38548 4.28111 8.7072 4.00016 7.99996 4.00016ZM7.99996 8.00016C7.73625 8.00016 7.47846 7.92196 7.2592 7.77546C7.03993 7.62895 6.86904 7.42071 6.76812 7.17707C6.6672 6.93344 6.6408 6.66535 6.69225 6.40671C6.74369 6.14807 6.87068 5.91049 7.05715 5.72402C7.24362 5.53755 7.4812 5.41056 7.73984 5.35912C7.99848 5.30767 8.26657 5.33407 8.5102 5.43499C8.75384 5.53591 8.96208 5.7068 9.10858 5.92607C9.25509 6.14533 9.33329 6.40312 9.33329 6.66683C9.33329 7.02045 9.19282 7.35959 8.94277 7.60964C8.69272 7.85969 8.35358 8.00016 7.99996 8.00016Z" fill="#19204E"/>
</svg>
