<svg width="16" height="18" viewBox="0 0 16 18" fill="none" xmlns="http://www.w3.org/2000/svg">
<path d="M7.58325 15.6667H2.58325C2.36224 15.6667 2.15028 15.579 1.994 15.4227C1.83772 15.2664 1.74992 15.0544 1.74992 14.8334V3.16675C1.74992 2.94573 1.83772 2.73377 1.994 2.57749C2.15028 2.42121 2.36224 2.33341 2.58325 2.33341H6.74992V4.83341C6.74992 5.49646 7.01331 6.13234 7.48215 6.60118C7.95099 7.07002 8.58688 7.33342 9.24992 7.33342H11.7499V11.5001C11.7499 11.7211 11.8377 11.9331 11.994 12.0893C12.1503 12.2456 12.3622 12.3334 12.5833 12.3334C12.8043 12.3334 13.0162 12.2456 13.1725 12.0893C13.3288 11.9331 13.4166 11.7211 13.4166 11.5001V6.50008C13.4166 6.50008 13.4166 6.50008 13.4166 6.45008C13.4079 6.37353 13.3911 6.29811 13.3666 6.22508V6.15008C13.3265 6.0644 13.2731 5.98564 13.2083 5.91675V5.91675L8.20825 0.916748C8.13936 0.851928 8.0606 0.798482 7.97492 0.758415C7.94735 0.753589 7.91915 0.753589 7.89159 0.758415C7.81056 0.715084 7.72347 0.684183 7.63325 0.666748H2.58325C1.92021 0.666748 1.28433 0.93014 0.815485 1.39898C0.346644 1.86782 0.083252 2.50371 0.083252 3.16675V14.8334C0.083252 15.4965 0.346644 16.1323 0.815485 16.6012C1.28433 17.07 1.92021 17.3334 2.58325 17.3334H7.58325C7.80427 17.3334 8.01623 17.2456 8.17251 17.0893C8.32879 16.9331 8.41659 16.7211 8.41659 16.5001C8.41659 16.2791 8.32879 16.0671 8.17251 15.9108C8.01623 15.7545 7.80427 15.6667 7.58325 15.6667ZM8.41659 3.50841L10.5749 5.66675H9.24992C9.02891 5.66675 8.81694 5.57895 8.66066 5.42267C8.50438 5.26639 8.41659 5.05443 8.41659 4.83341V3.50841ZM4.24992 10.6667H9.24992C9.47093 10.6667 9.68289 10.579 9.83917 10.4227C9.99545 10.2664 10.0833 10.0544 10.0833 9.83342C10.0833 9.6124 9.99545 9.40044 9.83917 9.24416C9.68289 9.08788 9.47093 9.00008 9.24992 9.00008H4.24992C4.02891 9.00008 3.81694 9.08788 3.66066 9.24416C3.50438 9.40044 3.41659 9.6124 3.41659 9.83342C3.41659 10.0544 3.50438 10.2664 3.66066 10.4227C3.81694 10.579 4.02891 10.6667 4.24992 10.6667ZM7.58325 12.3334H4.24992C4.02891 12.3334 3.81694 12.4212 3.66066 12.5775C3.50438 12.7338 3.41659 12.9457 3.41659 13.1667C3.41659 13.3878 3.50438 13.5997 3.66066 13.756C3.81694 13.9123 4.02891 14.0001 4.24992 14.0001H7.58325C7.80427 14.0001 8.01623 13.9123 8.17251 13.756C8.32879 13.5997 8.41659 13.3878 8.41659 13.1667C8.41659 12.9457 8.32879 12.7338 8.17251 12.5775C8.01623 12.4212 7.80427 12.3334 7.58325 12.3334ZM4.24992 7.33342H5.08325C5.30427 7.33342 5.51623 7.24562 5.67251 7.08934C5.82879 6.93306 5.91659 6.7211 5.91659 6.50008C5.91659 6.27907 5.82879 6.06711 5.67251 5.91083C5.51623 5.75455 5.30427 5.66675 5.08325 5.66675H4.24992C4.02891 5.66675 3.81694 5.75455 3.66066 5.91083C3.50438 6.06711 3.41659 6.27907 3.41659 6.50008C3.41659 6.7211 3.50438 6.93306 3.66066 7.08934C3.81694 7.24562 4.02891 7.33342 4.24992 7.33342ZM15.6749 12.5751C15.5974 12.497 15.5053 12.435 15.4037 12.3927C15.3022 12.3504 15.1933 12.3286 15.0833 12.3286C14.9732 12.3286 14.8643 12.3504 14.7628 12.3927C14.6612 12.435 14.5691 12.497 14.4916 12.5751L11.7499 15.3251L10.6749 14.2417C10.5972 14.1641 10.505 14.1024 10.4035 14.0604C10.3019 14.0183 10.1931 13.9967 10.0833 13.9967C9.97337 13.9967 9.86456 14.0183 9.76304 14.0604C9.66153 14.1024 9.56928 14.1641 9.49159 14.2417C9.41389 14.3194 9.35225 14.4117 9.3102 14.5132C9.26815 14.6147 9.24651 14.7235 9.24651 14.8334C9.24651 14.9433 9.26815 15.0521 9.3102 15.1536C9.35225 15.2551 9.41389 15.3474 9.49159 15.4251L11.1583 17.0917C11.2357 17.1699 11.3279 17.2319 11.4294 17.2742C11.531 17.3165 11.6399 17.3382 11.7499 17.3382C11.8599 17.3382 11.9689 17.3165 12.0704 17.2742C12.1719 17.2319 12.2641 17.1699 12.3416 17.0917L15.6749 13.7584C15.753 13.6809 15.815 13.5888 15.8573 13.4872C15.8996 13.3857 15.9214 13.2768 15.9214 13.1667C15.9214 13.0567 15.8996 12.9478 15.8573 12.8463C15.815 12.7447 15.753 12.6526 15.6749 12.5751V12.5751Z" fill="#19204E"/>
</svg>
