<svg width="14" height="12" viewBox="0 0 14 12" fill="none" xmlns="http://www.w3.org/2000/svg">
<path d="M13.524 1.36602L9.324 0.0335119H9.275C9.24241 0.0303949 9.20958 0.0303949 9.177 0.0335119H9.016H8.925H8.876L4.9 1.33271L0.924002 0.0335119C0.818733 0.000473319 0.706725 -0.00829875 0.597197 0.00791757C0.487669 0.0241339 0.383754 0.064875 0.294002 0.126788C0.203533 0.188094 0.129688 0.269009 0.0785667 0.362847C0.0274456 0.456685 0.000515867 0.560753 2.33347e-06 0.666455V9.99403C-0.00037648 10.1337 0.0453756 10.27 0.130792 10.3835C0.216208 10.4971 0.336968 10.5823 0.476002 10.627L4.676 11.9595C4.81701 12.0033 4.96899 12.0033 5.11 11.9595L9.1 10.6936L13.076 11.9928C13.1503 12.0024 13.2257 12.0024 13.3 11.9928C13.4464 11.9948 13.5892 11.9502 13.706 11.8662C13.7965 11.8049 13.8703 11.724 13.9214 11.6302C13.9726 11.5363 13.9995 11.4322 14 11.3265V1.99897C14.0004 1.85929 13.9546 1.72303 13.8692 1.60945C13.7838 1.49587 13.663 1.41072 13.524 1.36602ZM4.2 10.4004L1.4 9.51433V1.59255L4.2 2.47867V10.4004ZM8.4 9.51433L5.6 10.4004V2.47867L8.4 1.59255V9.51433ZM12.6 10.4004L9.8 9.51433V1.59255L12.6 2.47867V10.4004Z" fill="#B4A9A7"/>
</svg>
