<svg width="16" height="16" viewBox="0 0 16 16" fill="none" xmlns="http://www.w3.org/2000/svg">
<path d="M0 2.66667C0 1.19391 1.19391 0 2.66667 0H13.3333C14.8061 0 16 1.19391 16 2.66667V13.3333C16 14.8061 14.8061 16 13.3333 16H2.66667C1.19391 16 0 14.8061 0 13.3333V2.66667Z" fill="white"/>
<path d="M4.23942 7.31537H6.63259C6.81393 7.31537 6.98785 7.24333 7.11608 7.1151C7.24431 6.98687 7.31635 6.81296 7.31635 6.63161V4.23845C7.31635 4.0571 7.24431 3.88319 7.11608 3.75496C6.98785 3.62673 6.81393 3.55469 6.63259 3.55469H4.23942C4.05808 3.55469 3.88416 3.62673 3.75593 3.75496C3.6277 3.88319 3.55566 4.0571 3.55566 4.23845V6.63161C3.55566 6.81296 3.6277 6.98687 3.75593 7.1151C3.88416 7.24333 4.05808 7.31537 4.23942 7.31537ZM4.58131 4.58033H6.29071V6.28973H4.58131V4.58033Z" fill="#E73725"/>
<path d="M4.23942 12.4443H6.63259C6.81393 12.4443 6.98785 12.3722 7.11608 12.244C7.24431 12.1158 7.31635 11.9419 7.31635 11.7605V9.36735C7.31635 9.18601 7.24431 9.01209 7.11608 8.88386C6.98785 8.75563 6.81393 8.68359 6.63259 8.68359H4.23942C4.05808 8.68359 3.88416 8.75563 3.75593 8.88386C3.6277 9.01209 3.55566 9.18601 3.55566 9.36735V11.7605C3.55566 11.9419 3.6277 12.1158 3.75593 12.244C3.88416 12.3722 4.05808 12.4443 4.23942 12.4443ZM4.58131 9.70923H6.29071V11.4186H4.58131V9.70923Z" fill="#E73725"/>
<path d="M9.3676 7.31537H11.7608C11.9421 7.31537 12.116 7.24333 12.2443 7.1151C12.3725 6.98687 12.4445 6.81296 12.4445 6.63161V4.23845C12.4445 4.0571 12.3725 3.88319 12.2443 3.75496C12.116 3.62673 11.9421 3.55469 11.7608 3.55469H9.3676C9.18625 3.55469 9.01234 3.62673 8.88411 3.75496C8.75588 3.88319 8.68384 4.0571 8.68384 4.23845V6.63161C8.68384 6.81296 8.75588 6.98687 8.88411 7.1151C9.01234 7.24333 9.18625 7.31537 9.3676 7.31537ZM9.70948 4.58033H11.4189V6.28973H9.70948V4.58033Z" fill="#E73725"/>
<path d="M11.0772 10.0508H10.0515V11.0764H11.0772V10.0508Z" fill="#E73725"/>
<path d="M12.1025 9.2818C12.1025 9.2138 12.0755 9.14858 12.0274 9.10049C11.9794 9.05241 11.9141 9.02539 11.8461 9.02539H11.0769V10.051H12.1025V9.2818Z" fill="#E73725"/>
<path d="M9.28205 9.02539C9.21404 9.02539 9.14882 9.05241 9.10074 9.10049C9.05265 9.14858 9.02563 9.2138 9.02563 9.2818V10.051H10.0513V9.02539H9.28205Z" fill="#E73725"/>
<path d="M11.8461 12.1018C11.9141 12.1018 11.9794 12.0748 12.0274 12.0267C12.0755 11.9786 12.1025 11.9134 12.1025 11.8454V11.0762H11.0769V12.1018H11.8461Z" fill="#E73725"/>
<path d="M9.02563 11.8454C9.02563 11.9134 9.05265 11.9786 9.10074 12.0267C9.14882 12.0748 9.21404 12.1018 9.28205 12.1018H10.0513V11.0762H9.02563V11.8454Z" fill="#E73725"/>
</svg>
