<svg width="320" height="320" viewBox="0 0 320 320" fill="none" xmlns="http://www.w3.org/2000/svg">
<path d="M113.923 37H37.0002V113.923H113.923V37ZM98.5387 98.5385H52.3849V52.3846H98.5387V98.5385Z" fill="black"/>
<path d="M83.1561 67.7695H67.7715V83.1541H83.1561V67.7695Z" fill="black"/>
<path d="M206.229 37V113.923H283.152V37H206.229ZM267.767 98.5385H221.613V52.3846H267.767V98.5385Z" fill="black"/>
<path d="M252.385 67.7695H237V83.1541H252.385V67.7695Z" fill="black"/>
<path d="M37 283.154H113.923V206.23H37V283.154ZM52.3846 221.615H98.5385V267.769H52.3846V221.615Z" fill="black"/>
<path d="M83.1561 237H67.7715V252.385H83.1561V237Z" fill="black"/>
<path d="M190.845 37H160.076V52.3846H190.845V37Z" fill="black"/>
<path d="M160.074 98.5386H175.459V83.154H190.843V67.7694H144.689V52.3848H129.305V67.7694V75.4617V83.154H160.074V98.5386Z" fill="black"/>
<path d="M144.689 98.5391H129.305V113.924H144.689V98.5391Z" fill="black"/>
<path d="M190.843 113.924H175.459V129.308H129.305V144.693H190.843V113.924Z" fill="black"/>
<path d="M52.3846 175.462H67.7692V160.078H52.3846V129.309H37V190.847H52.3846V175.462Z" fill="black"/>
<path d="M83.1561 129.309H67.7715V144.693H83.1561V129.309Z" fill="black"/>
<path d="M129.306 190.847H160.075V175.462H144.691V160.078H113.922V129.309H98.537V160.078H83.1523V190.847H98.537V175.462H106.229H113.922H129.306V190.847Z" fill="black"/>
<path d="M190.842 160.076H175.457V190.845H190.842V160.076Z" fill="black"/>
<path d="M175.459 206.23H129.305V221.615H160.074V267.769H129.305V283.154H175.459V267.769H206.228V252.384H175.459V206.23Z" fill="black"/>
<path d="M144.689 237H129.305V252.385H144.689V237Z" fill="black"/>
<path d="M206.232 206.23H190.848V237H206.232V206.23Z" fill="black"/>
<path d="M267.773 237H221.619V283.154H237.004V252.385H267.773V237Z" fill="black"/>
<path d="M283.15 267.77H252.381V283.154H283.15V267.77Z" fill="black"/>
<path d="M283.156 206.23H267.771V221.615H283.156V206.23Z" fill="black"/>
<path d="M221.613 221.615H236.998V175.461H206.229V190.846H221.613V221.615Z" fill="black"/>
<path d="M252.382 144.693H236.998V129.309H221.613V144.693H206.229V160.078H267.767V144.693H283.152V129.309H252.382V144.693Z" fill="black"/>
<path d="M283.15 175.461H252.381V190.846H283.15V175.461Z" fill="black"/>
<path fill-rule="evenodd" clip-rule="evenodd" d="M36.9231 0H283.077C303.469 0 320 16.531 320 36.9231V283.077C320 303.469 303.469 320 283.077 320H36.9231C16.531 320 0 303.469 0 283.077V36.9231C0 16.531 16.531 0 36.9231 0ZM36.9231 6.15385C19.9297 6.15385 6.15385 19.9297 6.15385 36.9231V283.077C6.15385 300.07 19.9297 313.846 36.9231 313.846H283.077C300.07 313.846 313.846 300.07 313.846 283.077V36.9231C313.846 19.9297 300.07 6.15385 283.077 6.15385H36.9231Z" fill="#D8D8D8"/>
</svg>
