<svg width="96" height="96" viewBox="0 0 96 96" fill="none" xmlns="http://www.w3.org/2000/svg">
<path d="M34.1543 11.0781H11.0774V34.155H34.1543V11.0781ZM29.5389 29.5397H15.6928V15.6935H29.5389V29.5397Z" fill="black"/>
<path d="M24.924 20.3086H20.3086V24.924H24.924V20.3086Z" fill="black"/>
<path d="M61.8457 11.0781V34.155H84.9226V11.0781H61.8457ZM80.3072 29.5397H66.4611V15.6935H80.3072V29.5397Z" fill="black"/>
<path d="M75.6925 20.3086H71.0771V24.924H75.6925V20.3086Z" fill="black"/>
<path d="M11.0771 84.9246H34.1541V61.8477H11.0771V84.9246ZM15.6925 66.463H29.5387V80.3092H15.6925V66.463Z" fill="black"/>
<path d="M24.924 71.0781H20.3086V75.6935H24.924V71.0781Z" fill="black"/>
<path d="M57.2308 11.0781H48V15.6935H57.2308V11.0781Z" fill="black"/>
<path d="M47.9993 29.5395H52.6147V24.9241H57.2301V20.3087H43.3839V15.6934H38.7686V20.3087V22.6164V24.9241H47.9993V29.5395Z" fill="black"/>
<path d="M43.3839 29.5391H38.7686V34.1544H43.3839V29.5391Z" fill="black"/>
<path d="M57.2301 34.1543H52.6147V38.7697H38.7686V43.3851H57.2301V34.1543Z" fill="black"/>
<path d="M15.6925 52.6157H20.3079V48.0003H15.6925V38.7695H11.0771V57.2311H15.6925V52.6157Z" fill="black"/>
<path d="M24.924 38.7695H20.3086V43.3849H24.924V38.7695Z" fill="black"/>
<path d="M38.769 57.2311H47.9998V52.6157H43.3844V48.0003H34.1536V38.7695H29.5382V48.0003H24.9229V57.2311H29.5382V52.6157H31.8459H34.1536H38.769V57.2311Z" fill="black"/>
<path d="M57.2296 48H52.6143V57.2308H57.2296V48Z" fill="black"/>
<path d="M52.6147 61.8477H38.7686V66.463H47.9993V80.3092H38.7686V84.9246H52.6147V80.3092H61.8455V75.6938H52.6147V61.8477Z" fill="black"/>
<path d="M43.3839 71.0781H38.7686V75.6935H43.3839V71.0781Z" fill="black"/>
<path d="M61.8468 61.8477H57.2314V71.0784H61.8468V61.8477Z" fill="black"/>
<path d="M80.309 71.0781H66.4629V84.9243H71.0783V75.6935H80.309V71.0781Z" fill="black"/>
<path d="M84.9222 80.3086H75.6914V84.924H84.9222V80.3086Z" fill="black"/>
<path d="M84.924 61.8477H80.3086V66.463H84.924V61.8477Z" fill="black"/>
<path d="M66.4611 66.4633H71.0765V52.6172H61.8457V57.2326H66.4611V66.4633Z" fill="black"/>
<path d="M75.6919 43.3849H71.0765V38.7695H66.4611V43.3849H61.8457V48.0003H80.3072V43.3849H84.9226V38.7695H75.6919V43.3849Z" fill="black"/>
<path d="M84.9222 52.6172H75.6914V57.2326H84.9222V52.6172Z" fill="black"/>
<path fill-rule="evenodd" clip-rule="evenodd" d="M11.0769 0H84.9231C91.0407 0 96 4.95931 96 11.0769V84.9231C96 91.0407 91.0407 96 84.9231 96H11.0769C4.95931 96 0 91.0407 0 84.9231V11.0769C0 4.95931 4.95931 0 11.0769 0ZM11.0769 1.84615C5.97891 1.84615 1.84615 5.97891 1.84615 11.0769V84.9231C1.84615 90.0211 5.97891 94.1538 11.0769 94.1538H84.9231C90.0211 94.1538 94.1538 90.0211 94.1538 84.9231V11.0769C94.1538 5.97891 90.0211 1.84615 84.9231 1.84615H11.0769Z" fill="#D8D8D8"/>
</svg>
