<svg width="7" height="10" viewBox="0 0 7 10" fill="none" xmlns="http://www.w3.org/2000/svg">
<path d="M6.33894 8.8665L4.17228 6.8665C3.88339 6.59984 3.45005 6.59984 3.16117 6.8665L0.994499 8.8665C0.70561 9.13317 0.70561 9.53317 0.994499 9.79984C1.28339 10.0665 1.71672 10.0665 2.00561 9.79984L3.66672 8.2665L5.32783 9.79984C5.47228 9.93317 5.61672 9.99984 5.83339 9.99984C6.05005 9.99984 6.1945 9.93317 6.33894 9.79984C6.62783 9.53317 6.62783 9.13317 6.33894 8.8665ZM3.16117 3.79984C3.30561 3.93317 3.45005 3.99984 3.66672 3.99984C3.88339 3.99984 4.02783 3.93317 4.17228 3.79984L6.33894 1.79984C6.62783 1.53317 6.62783 1.13317 6.33894 0.866504C6.05005 0.599837 5.61672 0.599837 5.32783 0.866504L3.66672 2.39984L2.00561 0.866504C1.71672 0.599837 1.28339 0.599837 0.994499 0.866504C0.70561 1.13317 0.70561 1.53317 0.994499 1.79984L3.16117 3.79984Z" fill="#B4A9A7"/>
</svg>
