<svg width="11" height="10" viewBox="0 0 11 10" fill="none" xmlns="http://www.w3.org/2000/svg">
<path d="M1.25 6.46787L3.94063 8.6072C4.01289 8.66635 4.0975 8.70874 4.18831 8.73131C4.27913 8.75387 4.37386 8.75604 4.46562 8.73765C4.55827 8.72038 4.64608 8.68347 4.72308 8.62945C4.80009 8.57543 4.86448 8.50555 4.91187 8.42458L9.125 1.25" fill="#410000"/>
<path d="M1.25 6.46787L3.94063 8.6072C4.01289 8.66635 4.0975 8.70874 4.18831 8.73131C4.27913 8.75387 4.37386 8.75604 4.46562 8.73765C4.55827 8.72038 4.64608 8.68347 4.72308 8.62945C4.80009 8.57543 4.86448 8.50555 4.91187 8.42458L9.125 1.25" stroke="#FFDAD2" stroke-width="2" stroke-linecap="round" stroke-linejoin="round"/>
</svg>
